<svg width="20" height="20" viewBox="0 0 140 140" fill="none" xmlns="http://www.w3.org/2000/svg">
<path d="M25.2354 110.386C25.2354 113.147 27.4739 115.386 30.2354 115.386L75.2354 115.386C77.9968 115.386 80.2354 113.147 80.2354 110.386C80.2354 107.624 77.9968 105.386 75.2354 105.386L35.2354 105.386L35.2353 65.3857C35.2353 62.6243 32.9968 60.3857 30.2353 60.3857C27.4739 60.3857 25.2353 62.6243 25.2353 65.3857L25.2354 110.386ZM115.106 30.5147C115.106 27.7532 112.868 25.5147 110.106 25.5147L65.1064 25.5147C62.345 25.5147 60.1064 27.7532 60.1064 30.5147C60.1064 33.2761 62.345 35.5147 65.1064 35.5147L105.106 35.5147L105.106 75.5147C105.106 78.2761 107.345 80.5147 110.106 80.5147C112.868 80.5147 115.106 78.2761 115.106 75.5147L115.106 30.5147ZM33.7709 113.921L113.642 34.0502L106.571 26.9791L26.6998 106.85L33.7709 113.921Z" fill="white"/>
</svg>
